<svg style="display: none;" id="icons" xmlns="http://www.w3.org/2000/svg"><symbol id="icons-bell" viewBox="0 0 512 512" xmlns:xlink="http://www.w3.org/1999/xlink">
  <g>
    <path d="m440.1,362.1c-14-8.6-35.1-21.6-34.8-35.4 2.1-88.3-19-155.6-60.9-194.4-9.6-8.9-20.2-16.2-31.6-21.8 8-10.3 12.7-22.8 12.7-36.3 0-34.8-31.2-63.2-69.6-63.2s-69.6,28.4-69.6,63.2c0,13.5 4.7,26 12.7,36.3-11.4,5.6-22,12.9-31.6,21.8-41.9,38.9-62.9,106.1-60.9,194.4 0.3,13.8-20.8,26.8-34.8,35.4-13.6,8.4-30.6,18.9-24.6,36.5 6,17.6 14.9,21.7 122.3,22.6 4.9,39.4 40.3,79.8 86.5,79.8 46.2,0 81.5-40.4 86.5-79.8 107.4-0.9 116.4-5 122.3-22.6 6-17.6-10.9-28.1-24.6-36.5zm-184.1-310.3c13.6-1.42109e-14 24.6,10 24.6,22.4 0,12.3-11,22.4-24.6,22.4s-24.6-10-24.6-22.4c0-12.3 11-22.4 24.6-22.4zm0,408.4c-19,0-36.3-19.7-40.9-38.7 11.8,0 70,0 81.8,0-4.6,19-21.9,38.7-40.9,38.7zm-134.7-80.7c16-12.7 30.8-30 30.2-53.6-1.8-76 15.3-134.6 48.1-165 15.8-14.7 34.8-22.4 56.4-23 21.6,0.6 40.6,8.3 56.4,23 32.8,30.4 49.8,89 48.1,165-0.5,23.6 14.2,40.9 30.2,53.6-37.4,1.1-232,1.1-269.4,0z"/>
  </g>
</symbol><symbol id="icons-hash" viewBox="0 0 24 24"> <title id="hashIconTitle-c153ff2b-cbe2-4592-8fe3-e127cbf129f2">Hash</title> <path d="M11 3L5 21M19 3L13 21M3 16L19 16M5 8L21 8"/> </symbol><symbol id="icons-home" viewBox="0 0 24 24">
    <g>
        <path fill="none" d="M0 0h24v24H0z"/>
        <path d="M19 20a1 1 0 0 1-1 1H4a1 1 0 0 1-1-1v-9H0l10.327-9.388a1 1 0 0 1 1.346 0L22 11h-3v9zm-8-5a2.5 2.5 0 1 0 0-5 2.5 2.5 0 0 0 0 5z"/>
    </g>
</symbol><symbol id="icons-layout" viewBox="0 0 460.002 460.002" xmlns:xlink="http://www.w3.org/1999/xlink">
<g>
	<g>
		<g>
			<path d="M427.137,0H32.865C14.743,0,0,14.743,0,32.865v394.272c0,18.122,14.743,32.865,32.865,32.865h394.272
				c18.122,0,32.865-14.743,32.865-32.865V32.865C460.002,14.743,445.259,0,427.137,0z M430.002,427.137
				c0,1.58-1.285,2.865-2.865,2.865H32.865c-1.58,0-2.865-1.285-2.865-2.865V32.865C30,31.285,31.285,30,32.865,30h394.272
				c1.58,0,2.865,1.285,2.865,2.865V427.137z"/>
			<path d="M109.153,123.001H256.85c8.284,0,15-6.716,15-15s-6.716-15-15-15H109.153c-8.284,0-15,6.716-15,15
				S100.869,123.001,109.153,123.001z"/>
			<path d="M350.85,215.001H109.153c-8.284,0-15,6.716-15,15s6.716,15,15,15H350.85c8.284,0,15-6.716,15-15
				S359.134,215.001,350.85,215.001z"/>
			<path d="M350.85,337.001H109.153c-8.284,0-15,6.716-15,15s6.716,15,15,15H350.85c8.284,0,15-6.716,15-15
				S359.134,337.001,350.85,337.001z"/>
		</g>
	</g>
</g>
<g>
</g>
<g>
</g>
<g>
</g>
<g>
</g>
<g>
</g>
<g>
</g>
<g>
</g>
<g>
</g>
<g>
</g>
<g>
</g>
<g>
</g>
<g>
</g>
<g>
</g>
<g>
</g>
<g>
</g>
</symbol><symbol id="icons-mail" viewBox="0 0 24 24">
  <path d="M4 4h16c1.1 0 2 .9 2 2v12c0 1.1-.9 2-2 2H4c-1.1 0-2-.9-2-2V6c0-1.1.9-2 2-2z" />
  <polyline points="22,6 12,13 2,6" />
</symbol><symbol id="icons-more" viewBox="0 0 24 24">
<path d="M7 14C8.10457 14 9 13.1046 9 12C9 10.8954 8.10457 10 7 10C5.89543 10 5 10.8954 5 12C5 13.1046 5.89543 14 7 14Z" fill="black"/>
<path d="M14 12C14 13.1046 13.1046 14 12 14C10.8954 14 10 13.1046 10 12C10 10.8954 10.8954 10 12 10C13.1046 10 14 10.8954 14 12Z" fill="black"/>
<path d="M17 14C18.1046 14 19 13.1046 19 12C19 10.8954 18.1046 10 17 10C15.8954 10 15 10.8954 15 12C15 13.1046 15.8954 14 17 14Z" fill="black"/>
<path fill-rule="evenodd" clip-rule="evenodd" d="M24 12C24 18.6274 18.6274 24 12 24C5.37258 24 0 18.6274 0 12C0 5.37258 5.37258 0 12 0C18.6274 0 24 5.37258 24 12ZM22 12C22 17.5228 17.5228 22 12 22C6.47715 22 2 17.5228 2 12C2 6.47715 6.47715 2 12 2C17.5228 2 22 6.47715 22 12Z" fill="black"/>
</symbol><symbol id="icons-person" viewBox="0 0 512 512"><title>ionicons-v5-j</title><path d="M344,144c-3.92,52.87-44,96-88,96s-84.15-43.12-88-96c-4-55,35-96,88-96S348,90,344,144Z" style="fill:none;stroke:#000;stroke-linecap:round;stroke-linejoin:round;stroke-width:32px"/><path d="M256,304c-87,0-175.3,48-191.64,138.6C62.39,453.52,68.57,464,80,464H432c11.44,0,17.62-10.48,15.65-21.4C431.3,352,343,304,256,304Z" style="fill:none;stroke:#000;stroke-miterlimit:10;stroke-width:32px"/></symbol><symbol id="icons-retweet" viewBox="0 0 512 512" xmlns:xlink="http://www.w3.org/1999/xlink">
<g>
	<path class="st0" d="M509.86,267.434c-2.785-4.717-7.858-7.613-13.338-7.613h-43.677v-108.21
		c0.014-19.402-7.962-37.293-20.698-49.971c-12.678-12.738-30.57-20.721-49.973-20.699l-194.482-0.007
		c-6.088,0-11.731,3.222-14.818,8.472c-3.089,5.243-3.178,11.738-0.222,17.062l17.55,31.65c3.792,6.828,10.99,11.072,18.795,11.072
		h173.178c0.786,0.014,1.17,0.214,1.71,0.703c0.49,0.548,0.696,0.933,0.711,1.718v108.21h-43.678c-5.48,0-10.553,2.896-13.338,7.613
		c-2.777,4.74-2.858,10.575-0.199,15.374l77.802,140.29c2.726,4.918,7.91,7.969,13.538,7.969s10.812-3.051,13.537-7.969
		l77.802-140.29C512.719,278.009,512.637,272.174,509.86,267.434z"></path>
	<path class="st0" d="M321.791,373.873c-3.792-6.835-10.983-11.071-18.796-11.071h-173.17c-0.785-0.014-1.17-0.214-1.711-0.703
		c-0.488-0.541-0.696-0.926-0.71-1.71v-108.21h43.678c5.473,0,10.553-2.896,13.337-7.613c2.778-4.74,2.859-10.575,0.201-15.374
		l-77.802-140.29c-2.733-4.918-7.91-7.969-13.537-7.969c-5.629,0-10.805,3.051-13.538,7.969L1.94,229.192
		c-2.658,4.798-2.577,10.634,0.2,15.374c2.785,4.717,7.865,7.613,13.338,7.613h43.678v108.21
		c-0.015,19.402,7.961,37.294,20.698,49.972c12.678,12.737,30.57,20.714,49.972,20.69l194.476,0.008
		c6.086,0,11.73-3.222,14.818-8.472c3.087-5.251,3.177-11.738,0.222-17.07L321.791,373.873z"></path>
</g>
</symbol><symbol id="icons-ribbon" viewBox="0 0 458.001 458.001" xmlns:xlink="http://www.w3.org/1999/xlink">
<g>
	<g>
		<path d="M308.497,0H149.505c-8.284,0-15,6.716-15,15v428.001c0,5.6,3.12,10.735,8.092,13.314
			c4.971,2.579,10.966,2.175,15.545-1.051l70.859-49.9l70.86,49.901c2.576,1.814,5.6,2.736,8.638,2.736
			c2.362,0,4.732-0.558,6.906-1.686c4.972-2.579,8.092-7.713,8.092-13.314V15C323.497,6.716,316.781,0,308.497,0z M293.497,414.092
			l-55.859-39.337c-2.59-1.824-5.614-2.736-8.637-2.736s-6.046,0.912-8.637,2.736l-55.859,39.337V30h128.992V414.092z"/>
	</g>
</g>
<g>
</g>
<g>
</g>
<g>
</g>
<g>
</g>
<g>
</g>
<g>
</g>
<g>
</g>
<g>
</g>
<g>
</g>
<g>
</g>
<g>
</g>
<g>
</g>
<g>
</g>
<g>
</g>
<g>
</g>
</symbol><symbol id="icons-trash" viewBox="0 0 16 16"> <path d="M5.5 5.5A.5.5 0 0 1 6 6v6a.5.5 0 0 1-1 0V6a.5.5 0 0 1 .5-.5zm2.5 0a.5.5 0 0 1 .5.5v6a.5.5 0 0 1-1 0V6a.5.5 0 0 1 .5-.5zm3 .5a.5.5 0 0 0-1 0v6a.5.5 0 0 0 1 0V6z"/> <path fill-rule="evenodd" d="M14.5 3a1 1 0 0 1-1 1H13v9a2 2 0 0 1-2 2H5a2 2 0 0 1-2-2V4h-.5a1 1 0 0 1-1-1V2a1 1 0 0 1 1-1H6a1 1 0 0 1 1-1h2a1 1 0 0 1 1 1h3.5a1 1 0 0 1 1 1v1zM4.118 4 4 4.059V13a1 1 0 0 0 1 1h6a1 1 0 0 0 1-1V4.059L11.882 4H4.118zM2.5 3V2h11v1h-11z"/> </symbol><symbol id="icons-twitter" viewBox="0 0 48 48"><path fill="#03A9F4" d="M42,12.429c-1.323,0.586-2.746,0.977-4.247,1.162c1.526-0.906,2.7-2.351,3.251-4.058c-1.428,0.837-3.01,1.452-4.693,1.776C34.967,9.884,33.05,9,30.926,9c-4.08,0-7.387,3.278-7.387,7.32c0,0.572,0.067,1.129,0.193,1.67c-6.138-0.308-11.582-3.226-15.224-7.654c-0.64,1.082-1,2.349-1,3.686c0,2.541,1.301,4.778,3.285,6.096c-1.211-0.037-2.351-0.374-3.349-0.914c0,0.022,0,0.055,0,0.086c0,3.551,2.547,6.508,5.923,7.181c-0.617,0.169-1.269,0.263-1.941,0.263c-0.477,0-0.942-0.054-1.392-0.135c0.94,2.902,3.667,5.023,6.898,5.086c-2.528,1.96-5.712,3.134-9.174,3.134c-0.598,0-1.183-0.034-1.761-0.104C9.268,36.786,13.152,38,17.321,38c13.585,0,21.017-11.156,21.017-20.834c0-0.317-0.01-0.633-0.025-0.945C39.763,15.197,41.013,13.905,42,12.429"/></symbol></svg>